<?xml version="1.0" encoding="UTF-8"?>
<svg width="700px" height="800px" viewBox="0 0 700 800" version="1.1" xmlns="http://www.w3.org/2000/svg" xmlns:xlink="http://www.w3.org/1999/xlink">
    <!-- Generator: Sketch 43.2 (39069) - http://www.bohemiancoding.com/sketch -->
    <title>Bootstrap Paragraphs Logo</title>
    <desc>Created with Sketch.</desc>
    <defs></defs>
    <g id="Page-1" stroke="none" stroke-width="1" fill="none" fill-rule="evenodd">
        <g id="Bootstrap-Paragraphs-Logo" fill-rule="nonzero">
            <path d="M524.229075,148.696211 C483.318649,123.211304 444.875184,113.243417 406.226138,87.8612717 C382.378855,71.6249197 349.17768,33.192036 321.424376,0 C316.079295,53.2305716 299.838473,74.8105331 281.33627,90.2247913 C242.070485,121.053308 217.400881,130.301863 183.480176,148.798972 C154.904552,163.391137 0,255.876686 0,454.720617 C0,653.564547 167.342144,800 353.0837,800 C538.825257,800 700,665.176622 700,460.88632 C700,256.596018 548.898678,164.110469 524.229075,148.696211 Z" id="Druplicon" fill="#563D7C"></path>
            <path d="M538.528725,375.000734 C538.057335,374.993604 537.586595,375.038424 537.125026,375.134383 L495.14775,375.134383 C494.717817,375.056702 494.281074,375.023116 493.844315,375.034146 C493.485645,375.037621 493.127897,375.07115 492.774831,375.134383 L450.563604,375.134383 C450.133672,375.056702 449.696928,375.023116 449.26017,375.034146 C448.901499,375.037621 448.543752,375.07115 448.190685,375.134383 L404.742867,375.134383 C404.531328,375.123907 404.3194,375.123907 404.107861,375.134383 C401.815168,375.247579 399.757064,376.57505 398.708901,378.616697 C397.660739,380.658344 397.781779,383.103951 399.026422,385.032183 C400.271065,386.960415 402.450195,388.078289 404.742867,387.964667 L442.943526,387.964667 L442.943526,668.49349 C442.910798,670.807021 444.126645,672.958951 446.125496,674.125265 C448.124348,675.291578 450.596521,675.291578 452.595372,674.125265 C454.594223,672.958951 455.810071,670.807021 455.777343,668.49349 L455.777343,387.964667 L487.527671,387.964667 L487.527671,501.699793 C487.432897,502.331089 487.432897,502.972992 487.527671,503.604288 L487.527671,668.49349 C487.494943,670.807021 488.71079,672.958951 490.709642,674.125265 C492.708493,675.291578 495.180666,675.291578 497.179517,674.125265 C499.178369,672.958951 500.394216,670.807021 500.361488,668.49349 L500.361488,509.083889 L538.528725,509.083889 C538.740816,509.083248 538.952745,509.072097 539.163732,509.050477 C575.818086,508.706112 605.605472,478.782211 605.605472,442.059018 C605.605472,405.122757 575.475156,375.000734 538.528725,375.000734 Z M539.798738,387.864431 C569.213569,388.536299 592.771655,412.488024 592.771655,442.059018 C592.771655,472.054074 568.532039,496.253604 538.528725,496.253604 L500.361488,496.253604 L500.361488,387.964667 L538.528725,387.964667 C538.95434,387.973449 539.379774,387.939872 539.798738,387.864431 L539.798738,387.864431 Z" id="Paragraphs" fill="#FFFFFF"></path>
            <path d="M125,275 L270.838462,275 C297.736622,275 319.339207,281.134454 335.56216,293.487395 C351.785113,305.840336 359.938618,324.411765 359.938618,349.369748 C359.938618,364.495798 356.24012,377.436975 348.843126,388.193277 C341.446132,398.94958 330.854982,407.352941 317.069675,413.235294 L317.069675,414.07563 C335.56216,418.02521 349.599637,426.764706 359.09805,440.294118 C368.596463,453.907563 373.387698,470.882353 373.387698,491.386555 C373.387698,503.151261 371.286279,514.159664 367.083441,524.327731 C362.880604,534.579832 356.324177,543.403361 347.330105,550.798319 C338.336033,558.193277 326.904315,564.07563 312.866837,568.445378 C298.82936,572.815126 282.186123,575 262.853071,575 L125,575 L125,275 L125,275 Z M177.535469,400.630252 L263.273354,400.630252 C275.881867,400.630252 286.388961,397.10084 294.794636,389.87395 C303.200311,382.647059 307.403148,372.394958 307.403148,358.94958 C307.403148,343.823529 303.620595,333.151261 296.055487,327.016807 C288.49038,320.882353 277.563002,317.773109 263.273354,317.773109 L177.535469,317.773109 L177.535469,400.630252 L177.535469,400.630252 Z M177.535469,532.142857 L270.418178,532.142857 C286.388961,532.142857 298.82936,528.02521 307.571262,519.705882 C316.397221,511.470588 320.852229,499.705882 320.852229,484.579832 C320.852229,469.705882 316.481278,458.361345 307.571262,450.294118 C298.661246,442.226891 286.388961,438.361345 270.418178,438.361345 L177.535469,438.361345 L177.535469,532.142857 Z" id="Bootstrap" fill="#FFFFFF"></path>
        </g>
    </g>
</svg>