<svg version="1" xmlns="http://www.w3.org/2000/svg" width="1066.667" height="1066.667" viewBox="0 0 800.000000 800.000000"><path d="M370.9 3.7c-.2 4.5-1.5 12.8-3.3 21.8-5.1 25.3-16.4 46.9-31.6 60.5-9.3 8.3-29.4 22.6-43.7 31.1-12.1 7.2-17.4 10.1-48.8 26.4-44.1 22.9-82.7 53.6-113 90-2.8 3.2-5.9 7-7 8.3-9.7 11.4-27.4 39-36.7 57.2-15.2 29.7-27.4 66.2-31.4 93.8-.3 2-.7 4.3-.9 5-.3.7-.8 4.1-1.1 7.5-.3 3.4-.8 6.5-.9 6.8-1.8 2.9-2.7 57.6-1.2 72.4 6 61.1 24.7 113 58.5 162.5 3.6 5.2 6.8 9.7 7.1 10 .3.3 1.9 2.3 3.6 4.5 9.6 13.1 31.5 36.5 46.1 49.3 37 32.3 83.4 58.3 129.4 72.5 16.4 5.1 34.6 9.6 45 11.2 2.5.4 5.4.9 6.5 1.1 1.8.4 4 .7 13.5 1.9 19.9 2.5 70.8 2.6 84.5.1 1.1-.2 4.6-.7 7.9-1.1 3.2-.3 7-.9 8.5-1.1 6.7-1.2 13.8-2.5 16.1-3 1.4-.3 3.6-.7 5-1 1.4-.3 3.3-.7 4.2-1 .9-.3 2.6-.7 3.7-.9 11.9-2.3 38.7-11.1 56.1-18.5 32.4-13.8 58.8-30 89-54.8 8.8-7.2 32.6-31.9 41.3-42.7 41.5-52 66-114.4 71.4-181.5 1.7-21 .8-61.1-1.7-79-.5-3.6-1.2-8.8-1.6-11.5-.8-6.1-.8-6.1-4-21.5-1.4-6.9-3-13.3-3.5-14.3-.5-.9-.8-1.7-.5-1.7.3 0 .1-1.2-.4-2.8-8.5-27-11.9-36.1-19.2-52.2-13.8-30.3-32.8-59.7-55.3-85.5-9.7-11.1-28.1-29.5-36.4-36.5-2.9-2.5-5.9-5-6.5-5.6-3.5-3.3-22.4-17.6-31.1-23.4-21.4-14.3-37.4-23.1-67-36.5-43.9-20-63.7-31-78-43.5-16.4-14.4-38.4-38.1-68.1-73.3-3.7-4.4-4.4-4.6-4.5-1z"/></svg>